PathFileType	4	(X/Y/Z)	C:\Users\Basilio\Documents\Thesis Gigler\squatting_fais\c3dfiles\041\SLS_pre_front4\markers_experimental.trc
DataRate	CameraRate	NumFrames	NumMarkers	Units	OrigDataRate	OrigDataStartFrame	OrigNumFrames
200.000000	200.000000	4	63	mm	200.000000	345	1381
Frame#	Time	FHD			LBHD			RBHD			C7			T10			CLAV			LSHO			LUUPA			LMUPA			LDUPA			LLEP			LMEP			LRAD			LUL			LRFIN			RSHO			RUPA1			RMUPA			RDUPA			RLEP			RMEP			RRAD			RUL			RUFIN			LASI			RASI			USACR			RSACR			LTHI1			LTHI2			LTHI3			LTHI4			LLFC			LMFC			LTIB1			LTIB2			LTIB3			LTIB4			LLMAL			LMMAL			LHEE			LMT1			LMT2			LMT5			RTHI			RTHI2			RTHI3			RTHI4			RLFC			RMFC			RTIB1			RTIB2			RTIB3			RTIB4			RLMAL			RMMAL			RHEE			RMT1			RMT2			RMT5			LSACR			*61			*62			
		X1	Y1	Z1	X2	Y2	Z2	X3	Y3	Z3	X4	Y4	Z4	X5	Y5	Z5	X6	Y6	Z6	X7	Y7	Z7	X8	Y8	Z8	X9	Y9	Z9	X10	Y10	Z10	X11	Y11	Z11	X12	Y12	Z12	X13	Y13	Z13	X14	Y14	Z14	X15	Y15	Z15	X16	Y16	Z16	X17	Y17	Z17	X18	Y18	Z18	X19	Y19	Z19	X20	Y20	Z20	X21	Y21	Z21	X22	Y22	Z22	X23	Y23	Z23	X24	Y24	Z24	X25	Y25	Z25	X26	Y26	Z26	X27	Y27	Z27	X28	Y28	Z28	X29	Y29	Z29	X30	Y30	Z30	X31	Y31	Z31	X32	Y32	Z32	X33	Y33	Z33	X34	Y34	Z34	X35	Y35	Z35	X36	Y36	Z36	X37	Y37	Z37	X38	Y38	Z38	X39	Y39	Z39	X40	Y40	Z40	X41	Y41	Z41	X42	Y42	Z42	X43	Y43	Z43	X44	Y44	Z44	X45	Y45	Z45	X46	Y46	Z46	X47	Y47	Z47	X48	Y48	Z48	X49	Y49	Z49	X50	Y50	Z50	X51	Y51	Z51	X52	Y52	Z52	X53	Y53	Z53	X54	Y54	Z54	X55	Y55	Z55	X56	Y56	Z56	X57	Y57	Z57	X58	Y58	Z58	X59	Y59	Z59	X60	Y60	Z60	X61	Y61	Z61	X62	Y62	Z62	X63	Y63	Z63	

346	1.725	-252.634017944336	1766.807250976563	-1103.819091796875	-424.1460571289064	1684.094970703125	-1175.860961914063	-402.6282043457032	1690.85009765625	-1024.481201171875	-452.4955139160157	1536.2314453125	-1105.705932617188	-469.4517211914064	1224.802978515625	-1081.993408203125	-289.6525573730469	1489.207397460938	-1115.952270507813	-393.0617065429689	1547.17236328125	-1247.365478515625	-290.6940612792969	1539.591064453125	-1372.801025390625	-248.0967864990235	1555.975830078125	-1354.973754882813	-232.4750518798829	1542.562866210938	-1412.320556640625	-187.9005889892578	1541.938354492188	-1430.178833007813	-145.9026489257813	1474.359130859375	-1397.087158203125	92.1808319091797	1584.171142578125	-1457.818725585938	62.19944381713869	1585.874145507813	-1524.573974609375	148.0477905273438	1630.928833007813	-1478.099975585938	-364.6324462890626	1563.4267578125	-980.7678222656252	-238.8978729248047	1550.860473632813	-838.9805908203127	-217.1886596679688	1583.145263671875	-870.3665771484377	-175.2409210205078	1579.621826171875	-828.8079833984377	-131.9101715087891	1589.334594726563	-820.1068115234377	-100.8703842163086	1512.89111328125	-844.5271606445315	137.5025177001953	1614.551147460938	-851.8618774414065	125.9803009033203	1632.74169921875	-780.0129394531252	215.0116729736329	1641.165771484375	-849.7390747070315	-294.4746398925782	1034.875366210938	-1176.862670898438	-304.2687683105469	1055.711791992188	-953.8340454101565	-480.8377075195314	1106.634887695313	-1074.678466796875	-499.142303466797	1081.742797851563	-1045.148071289063	-368.2102050781251	811.7595214843752	-1227.409301757813	-316.4194030761719	745.4468994140626	-1218.335205078125	-270.8496704101563	759.5792236328126	-1211.21484375	-330.7207946777344	687.3536376953126	-1202.518798828125	-276.8751220703126	523.3650512695314	-1169.553344726563	-265.8299865722657	517.4594726562501	-1052.3115234375	-270.9295959472657	337.3764953613282	-1094.759643554688	-326.2386474609376	296.5033264160157	-1151.802856445313	-289.0939941406251	289.0284729003907	-1125.724609375	-304.0075988769532	217.7037811279297	-1083.955200195313	-380.1999206542969	131.5395965576172	-1111.16064453125	-340.8213195800782	140.8219299316407	-1030.705322265625	-447.8541259765626	118.0424575805664	-1063.9873046875	-241.4580993652344	63.82257461547853	-1041.612548828125	-236.4466552734376	56.13729095458986	-1086.188842773438	-285.9181823730469	41.17742919921876	-1138.585083007813	-269.5667419433594	816.032653808594	-871.5357666015627	-204.6951446533204	804.5543212890627	-876.991638183594	-182.8922424316407	827.8475341796877	-886.223083496094	-171.1368560791016	727.4701538085939	-890.2601318359377	-84.15194702148439	634.5041503906251	-895.2354125976565	-63.41438293457033	629.9486694335939	-1013.196533203125	51.16703033447267	529.7086791992189	-903.8026123046877	39.08726882934571	417.9573974609376	-886.732116699219	75.98579406738283	446.671112060547	-889.3308105468752	124.0352020263672	425.1299133300782	-916.4615478515627	162.3031921386719	297.4269409179688	-901.269226074219	170.9012145996094	331.8765563964844	-981.5203247070315	148.0209503173828	228.1506958007813	-952.0323486328127	307.7204589843751	373.7500915527344	-962.4058837890627	305.3968200683594	380.8929748535157	-910.6118774414065	290.5722045898438	334.3433227539063	-863.8116455078127	-493.8791503906251	1077.90380859375	-1099.542236328125	-4217.225097656251	853.223083496094	-3944.582763671876	nan	nan	nan	
347	1.73	-252.8143768310547	1766.876708984375	-1103.941650390625	-423.9878845214845	1683.73583984375	-1175.752319335938	-402.6182556152345	1690.5322265625	-1024.196166992188	-452.4946289062501	1536.139526367188	-1105.631958007813	-469.6323242187501	1224.696899414063	-1081.941040039063	-289.4800720214844	1489.001342773438	-1115.85205078125	-392.943572998047	1546.950317382813	-1247.281494140625	-290.5800170898438	1539.35546875	-1372.732421875	-247.8875579833985	1555.770629882813	-1354.934204101563	-232.3417205810547	1542.38671875	-1412.33642578125	-187.8601837158203	1541.887573242188	-1430.225830078125	-145.874496459961	1474.232177734375	-1397.18408203125	92.35453033447267	1584.048950195313	-1457.7412109375	62.2670135498047	1586.026611328125	-1524.432739257813	148.1991882324219	1630.860595703125	-1477.805786132813	-364.4716491699219	1563.259155273438	-980.7279052734377	-238.7146148681641	1550.911865234375	-838.9694824218752	-216.9884185791016	1583.194091796875	-870.4790649414065	-175.0348663330078	1579.679077148438	-828.9900512695315	-131.8171844482422	1589.468872070313	-820.3775634765627	-100.3946914672852	1513.088134765625	-844.8808593750002	137.6854553222657	1615.113647460938	-852.3104248046877	126.1780624389649	1633.098510742188	-780.372985839844	215.2064056396485	1641.91015625	-850.3062133789065	-294.6412658691407	1034.660034179688	-1176.733520507813	-304.7450256347657	1055.4072265625	-953.5759277343752	-481.1737060546876	1106.488525390625	-1074.71044921875	-499.3670654296876	1081.468627929688	-1045.086791992188	-368.1244812011719	811.5063476562502	-1227.302490234375	-316.2367553710938	745.1568603515626	-1218.158081054688	-270.5765686035157	759.3768310546876	-1210.8681640625	-330.3612670898438	687.0445556640626	-1202.217163085938	-276.5435485839844	523.2821044921876	-1169.237182617188	-265.9228515625001	517.3922119140626	-1052.002563476563	-270.7639770507813	337.2947692871094	-1094.318603515625	-325.7600708007813	296.6248474121094	-1151.376708984375	-289.0959472656251	289.2008972167969	-1125.252075195313	-304.0466918945313	217.5811767578126	-1083.490966796875	-380.1654663085938	131.565673828125	-1110.997436523438	-340.9338684082032	140.7171478271485	-1030.433715820313	-447.8768920898439	118.0782012939453	-1063.9072265625	-241.5172424316407	63.68666839599611	-1041.438232421875	-236.4736938476563	56.14806747436525	-1086.17041015625	-285.9426574707032	41.39440917968751	-1138.529052734375	-269.9201965332032	815.714538574219	-871.485046386719	-205.3149719238282	804.1401977539065	-876.231140136719	-183.2784729003907	827.575866699219	-886.0314941406252	-171.556884765625	727.2985839843751	-890.1047363281252	-84.25849914550783	634.4472656250001	-895.038269042969	-63.4936866760254	629.9284667968751	-1013.060241699219	50.77517700195314	529.6231689453126	-903.4442138671877	38.80735778808594	417.7670288085939	-886.5753173828127	75.66778564453126	446.5328369140626	-889.102233886719	123.6796112060547	425.092010498047	-916.2048339843752	161.9338531494141	297.3622741699219	-901.1311645507815	170.7349395751953	331.7735900878907	-981.4029541015627	147.8057861328125	228.1154479980469	-951.9610595703127	307.3685607910157	373.6921081542969	-962.0283203125002	304.9917297363282	381.1837158203126	-910.0893554687502	290.3078308105469	334.0919494628907	-863.5029296875002	-494.1777648925782	1077.701538085938	-1099.589233398438	-4216.858398437501	853.160339355469	-3944.661621093751	nan	nan	nan	
348	1.735	-252.3500213623047	1766.473754882813	-1103.799926757813	-423.7713012695314	1683.4443359375	-1175.65576171875	-402.4124145507814	1690.2353515625	-1024.152221679688	-452.3674316406251	1535.95556640625	-1105.537231445313	-469.8121337890626	1224.546997070313	-1081.940063476563	-289.3930664062501	1488.6484375	-1115.68017578125	-392.712860107422	1546.748291015625	-1247.192626953125	-290.5051269531251	1539.135375976563	-1372.700317382813	-247.6666107177735	1555.640747070313	-1354.903930664063	-232.2222290039063	1542.219970703125	-1412.318115234375	-187.7164459228516	1541.73681640625	-1430.20166015625	-145.7862091064453	1474.103271484375	-1397.269165039063	92.58277893066408	1583.88720703125	-1457.727905273438	62.42892456054689	1586.115966796875	-1524.290161132813	148.2635955810547	1630.827758789063	-1477.503662109375	-364.3500976562501	1563.123413085938	-980.695251464844	-238.4587707519532	1550.911987304688	-839.0098876953127	-216.8292541503907	1583.19140625	-870.5964965820315	-174.7597198486328	1579.847045898438	-829.1823730468752	-131.5280914306641	1589.727783203125	-820.7127075195315	-99.9948654174805	1513.3701171875	-845.2551879882815	137.8349304199219	1615.553100585938	-852.7517089843752	126.4046173095703	1633.461669921875	-780.785583496094	215.2427062988282	1642.477294921875	-850.738464355469	-294.7449645996094	1034.381225585938	-1176.576049804688	-305.2123718261719	1055.096313476563	-953.3593750000002	-481.5021972656251	1106.254760742188	-1074.68505859375	-499.024383544922	1081.328735351563	-1045.002319335938	-368.0696716308594	811.3007812500002	-1227.145141601563	-316.0731201171876	745.0002441406251	-1217.923950195313	-270.5549316406251	759.3413696289064	-1210.558837890625	-330.1772766113282	686.8815917968751	-1201.909423828125	-276.1211547851563	523.1118774414064	-1168.80859375	-265.8867797851563	517.3994750976564	-1051.680053710938	-270.6072692871094	337.2095947265626	-1093.870849609375	-325.4156799316407	296.5491027832032	-1151.023315429688	-288.8638610839844	289.1790161132813	-1124.895874023438	-304.0610656738282	217.4483795166016	-1083.206176757813	-380.1447143554688	131.6232299804688	-1110.854614257813	-340.9396667480469	140.7261962890625	-1030.224609375	-447.8355712890626	118.0409317016602	-1063.853637695313	-241.4718322753907	63.66202926635744	-1041.380126953125	-236.4395904541016	56.19832992553712	-1086.034423828125	-285.5416870117188	41.71246337890626	-1138.881469726563	-270.1667175292969	815.5375976562502	-871.533142089844	-205.6217956542969	804.046569824219	-876.042419433594	-183.552963256836	827.3469848632815	-885.9200439453127	-171.814193725586	727.1134643554689	-889.9636840820315	-84.61035156250001	634.3118896484376	-894.7359008789065	-63.57378387451173	629.9393920898439	-1012.99267578125	50.5883140563965	529.4407958984376	-903.263122558594	38.56244659423829	417.6369018554689	-886.475280761719	75.30736541748048	446.4363098144532	-888.8485107421877	123.4190902709961	425.0685424804689	-916.0325927734377	161.7992553710938	297.2078552246094	-900.8753662109377	170.5343170166016	331.6469421386719	-981.2442016601565	147.5957489013672	228.0677185058594	-951.8802490234377	307.1032409667969	373.6640014648438	-961.6199951171877	304.7529907226563	381.0506896972657	-909.6868286132815	289.7114868164063	333.9841918945313	-863.1630859375002	-494.2330627441407	1077.440307617188	-1099.60888671875	-4216.604492187501	853.1101684570315	-3944.865478515626	nan	nan	nan	
349	1.74	-252.6378784179688	1766.3779296875	-1103.738403320313	-423.7806091308595	1683.14892578125	-1175.568115234375	-402.2377929687501	1690.0439453125	-1024.021850585938	-452.2826232910157	1535.829711914063	-1105.473266601563	-470.0494689941407	1224.397094726563	-1081.848876953125	-289.3277893066407	1488.293701171875	-1115.51025390625	-392.5383911132814	1546.572631835938	-1247.06494140625	-290.7245788574219	1539.101806640625	-1372.752807617188	-247.4915313720704	1555.415405273438	-1354.929565429688	-232.9569396972657	1542.33203125	-1412.771118164063	-187.6468048095703	1541.619262695313	-1430.234619140625	-145.4314727783203	1473.94482421875	-1397.48779296875	92.9164505004883	1583.6953125	-1457.578247070313	62.57596588134767	1586.217041015625	-1524.171264648438	148.3956909179688	1630.841430664063	-1477.21435546875	-364.1739807128907	1562.937133789063	-980.7147216796877	-238.2336425781251	1551.028076171875	-839.1126098632815	-216.6649475097657	1583.232299804688	-870.7231445312502	-174.6289672851563	1579.880249023438	-829.3059082031252	-131.3428802490235	1589.856201171875	-820.8997802734377	-99.76215362548831	1513.509399414063	-845.448669433594	137.9591979980469	1615.971557617188	-853.1727294921877	126.7116851806641	1633.758666992188	-781.267028808594	215.7024688720704	1642.974731445313	-851.2154541015627	-294.9736328125001	1034.162353515625	-1176.452026367188	-305.7052612304688	1055.051879882813	-953.168395996094	-481.7760620117189	1106.01806640625	-1074.664672851563	-499.3659973144532	1081.14208984375	-1045.036865234375	-367.9460449218751	811.0255126953127	-1227.072021484375	-315.8988952636719	744.7844848632814	-1217.661499023438	-270.4237060546876	759.1701660156251	-1210.281982421875	-329.9614868164063	686.7171630859376	-1201.64111328125	-275.7536621093751	522.9921264648439	-1168.459716796875	-265.8671569824219	517.3896484375001	-1051.309814453125	-270.3758850097657	337.1236267089844	-1093.5087890625	-325.5692443847657	296.9434814453126	-1150.467529296875	-288.6365661621094	289.1214599609376	-1124.545532226563	-303.8568725585938	217.3763122558594	-1082.905151367188	-380.1102600097657	131.6269073486328	-1110.747680664063	-340.9641418457032	140.6715698242188	-1030.037719726563	-447.8338012695314	118.0256042480469	-1063.799926757813	-241.409408569336	63.53736114501955	-1041.316162109375	-236.389633178711	56.20471191406251	-1085.983154296875	-285.5419311523438	41.82002258300782	-1138.851928710938	-270.4788208007813	815.277282714844	-871.4666748046877	-205.8660430908204	803.8824462890627	-876.218688964844	-184.0208435058594	827.0450439453127	-885.6437988281252	-172.1034240722657	726.9332885742189	-889.7947387695315	-84.95255279541017	634.1499023437501	-894.5057373046877	-63.68964767456056	629.9277954101564	-1012.87109375	50.35305404663087	529.4214477539064	-902.9727172851565	38.42212677001954	417.5586853027345	-886.4162597656252	74.92721557617189	446.3295898437501	-888.586364746094	123.1890106201172	424.9484252929689	-915.755554199219	161.4621887207032	297.1187133789063	-900.6778564453127	170.3692474365235	331.6495361328126	-981.0937500000002	147.3303375244141	227.9321441650391	-951.7341308593752	306.9314270019532	373.5945129394532	-961.2822265625002	304.3509521484376	381.0020141601563	-909.216735839844	289.5109558105469	333.8706054687501	-862.857604980469	-494.5454711914064	1077.21240234375	-1099.659301757813	-4216.837890625001	853.1965332031252	-3944.644531250001	nan	nan	nan	
